<svg xmlns="http://www.w3.org/2000/svg" viewBox="0 0 204.39 160.47"><defs><style>.cls-1,.cls-3{fill:none;}.cls-1,.cls-2,.cls-3{stroke:#fff;}.cls-1,.cls-2,.cls-3,.cls-4{stroke-miterlimit:10;}.cls-1{stroke-width:2px;}.cls-2,.cls-4,.cls-5{fill:#fff;}.cls-3{stroke-width:6px;}.cls-4{stroke:#000;stroke-width:3px;}.cls-5{font-size:29.58px;font-family:Bauhaus93, Bauhaus 93;}</style></defs><title>logowsvg</title><g id="圖層_2" data-name="圖層 2"><g id="圖層_1-2" data-name="圖層 1"><ellipse class="cls-1" cx="106.83" cy="93.66" rx="2.85" ry="3.56"/><ellipse class="cls-1" cx="96.7" cy="83.39" rx="9.2" ry="9.91"/><ellipse class="cls-2" cx="94.57" cy="83.39" rx="5.66" ry="8.49"/><ellipse class="cls-1" cx="116.51" cy="83.39" rx="9.2" ry="9.91"/><ellipse class="cls-2" cx="114.38" cy="83.39" rx="5.66" ry="8.49"/><path class="cls-3" d="M3.69,113s22.19-88.74,37-76.42S70.24,71.11,80.1,41.53,92.43-5.3,102.29,7s37,44.37,44.37,39.44,0-34.51,19.72-12.33,49.3,51.77,27.12,74-61.63,19.72-98.6,17.26S3.69,113,3.69,113Z"/><path class="cls-4" d="M20.94,137.67"/><text class="cls-5" transform="translate(23.32 141.9) rotate(7.69)">T</text><text class="cls-5" transform="translate(38.34 143.95) rotate(7.09)">O</text><text class="cls-5" transform="translate(60.43 146.67) rotate(6.45)">Y</text><text class="cls-5" transform="translate(75.17 148.33) rotate(6.02)"> </text><text class="cls-5" transform="translate(82.47 149.13) rotate(5.45)">U</text><text class="cls-5" transform="translate(99.72 150.77) rotate(4.49)">T</text><text class="cls-5" transform="matrix(1, 0.05, -0.05, 1, 114.79, 152.03)">O</text><text class="cls-5" transform="matrix(1, -0.01, 0.01, 1, 137.84, 153.16)">P</text><text class="cls-5" transform="matrix(0.99, -0.15, 0.15, 0.99, 156.32, 152.8)">I</text><text class="cls-5" transform="matrix(0.95, -0.32, 0.32, 0.95, 168.14, 150.62)">A</text></g></g></svg>